<?xml version="1.0" encoding="utf-8"?>
<!-- Generator: Adobe Illustrator 15.0.0, SVG Export Plug-In . SVG Version: 6.00 Build 0)  -->
<!DOCTYPE svg PUBLIC "-//W3C//DTD SVG 1.1//EN" "http://www.w3.org/Graphics/SVG/1.1/DTD/svg11.dtd">
<svg version="1.1" id="Layer_1" xmlns="http://www.w3.org/2000/svg" xmlns:xlink="http://www.w3.org/1999/xlink" x="0px" y="0px"
	 width="841.89px" height="595.28px" viewBox="0 0 841.89 595.28" enable-background="new 0 0 841.89 595.28" xml:space="preserve">
<g>
	<path fill="#fcd307" d="M486.325,75.217v104.177c0,0,3.109,149.272-154.455,151.346c-157.564,2.073-177.778,0-177.778,0
		s-67.896,10.887-71.006,71.008c-3.11,60.122,106.771,177.777,259.668,175.704c152.899-2.073,263.815-130.611,280.92-211.469
		c17.104-80.855,24.361-186.069-62.196-283.51h115.063c0,0,59.603-1.038,63.23-62.196H535.563L486.325,75.217z"/>
	<path fill="#fcd307" d="M242.204,20.276h232.199c0,0,3.629,52.349-55.977,61.678H300.772
		C300.772,81.954,247.905,79.363,242.204,20.276z"/>
	<path fill="#fcd307" d="M217.844,227.078l12.957-13.475c0,0,7.724-16.954-8.034-22.289c-16.844-5.702-27.729,15.033-16.327,25.396
		C217.844,227.078,217.844,227.078,217.844,227.078z"/>
	<path fill="#fcd307" d="M565.624,515.772h68.934c0,0,1.036,51.887-55.459,61.706h-68.932L565.624,515.772z"/>
	<path fill="#f7f7f7" d="M109.657,467.594h248.646c0,0,83.053,2.095,114.867,75.67c0,0-78.147,51.107-189.801,28.913
		C171.716,549.98,116.283,476.949,109.657,467.594z"/>
	<path fill="#f7f7f7" d="M233.893,403.041c0,9.007-7.3,16.311-16.308,16.311c-9.007,0-16.309-7.304-16.309-16.311
		c0-9.005,7.302-16.307,16.309-16.307C226.592,386.734,233.893,394.036,233.893,403.041z"/>
</g>
</svg>
